Normalized EMG Linear Envelopes
nRows=65
nColumns=17

endheader
time	        VM	        VL	        RF	       GRA	        TA	   ADDLONG	   SEMIMEM	      BFLH	        GM	        GL	       TFL	   GLUTMAX	   GLUTMED	      PIRI	    OBTINT	        QF	
1.495	  0.000000	  0.000000	  0.028241	  0.224184	  0.100781	  0.249866	  0.062556	  0.041594	  0.183678	  0.154177	  0.172777	  0.000000	  0.263158	  0.357248	  0.936865	  0.216222	
1.4955	  0.000000	  0.000000	  0.028475	  0.226876	  0.102234	  0.251610	  0.062530	  0.040743	  0.178857	  0.150495	  0.174801	  0.000000	  0.262682	  0.353913	  0.938431	  0.216629	
1.496	  0.000000	  0.000000	  0.028716	  0.229561	  0.103739	  0.253322	  0.062507	  0.039919	  0.174106	  0.146863	  0.176836	  0.000000	  0.262145	  0.350608	  0.940135	  0.217021	
1.4965	  0.000000	  0.000000	  0.028962	  0.232241	  0.105296	  0.255000	  0.062487	  0.039121	  0.169426	  0.143281	  0.178880	  0.000000	  0.261545	  0.347335	  0.941976	  0.217396	
1.497	  0.000000	  0.000000	  0.029215	  0.234913	  0.106906	  0.256645	  0.062471	  0.038348	  0.164816	  0.139749	  0.180934	  0.000000	  0.260883	  0.344093	  0.943954	  0.217754	
1.4975	  0.000000	  0.000000	  0.029473	  0.237577	  0.108567	  0.258256	  0.062458	  0.037601	  0.160277	  0.136268	  0.182997	  0.000000	  0.260159	  0.340884	  0.946066	  0.218095	
1.498	  0.000000	  0.000000	  0.029737	  0.240234	  0.110281	  0.259833	  0.062448	  0.036880	  0.155809	  0.132838	  0.185070	  0.000000	  0.259372	  0.337708	  0.948312	  0.218416	
1.4985	  0.000000	  0.000000	  0.030007	  0.242882	  0.112046	  0.261375	  0.062442	  0.036182	  0.151413	  0.129459	  0.187153	  0.000000	  0.258523	  0.334567	  0.950690	  0.218719	
1.499	  0.000000	  0.000000	  0.030283	  0.245520	  0.113863	  0.262882	  0.062439	  0.035510	  0.147088	  0.126132	  0.189246	  0.000000	  0.257612	  0.331460	  0.953198	  0.219001	
1.4995	  0.000000	  0.000000	  0.030564	  0.248149	  0.115732	  0.264353	  0.062440	  0.034861	  0.142835	  0.122856	  0.191349	  0.000000	  0.256640	  0.328389	  0.955833	  0.219261	
1.5	  0.000000	  0.000000	  0.030852	  0.250767	  0.117651	  0.265788	  0.062445	  0.034235	  0.138654	  0.119632	  0.193462	  0.000000	  0.255607	  0.325353	  0.958595	  0.219500	
1.5005	  0.000000	  0.000000	  0.031146	  0.253374	  0.119622	  0.267186	  0.062453	  0.033633	  0.134545	  0.116461	  0.195585	  0.000000	  0.254514	  0.322354	  0.961480	  0.219715	
1.501	  0.000000	  0.000000	  0.031446	  0.255970	  0.121643	  0.268548	  0.062465	  0.033053	  0.130508	  0.113342	  0.197718	  0.000000	  0.253361	  0.319393	  0.964487	  0.219907	
1.5015	  0.000000	  0.000000	  0.031751	  0.258552	  0.123715	  0.269872	  0.062480	  0.032496	  0.126542	  0.110275	  0.199862	  0.000000	  0.252150	  0.316469	  0.967612	  0.220075	
1.502	  0.000000	  0.000000	  0.032063	  0.261121	  0.125837	  0.271158	  0.062499	  0.031961	  0.122648	  0.107261	  0.202015	  0.000000	  0.250880	  0.313583	  0.970853	  0.220218	
1.5025	  0.000000	  0.000000	  0.032381	  0.263675	  0.128008	  0.272406	  0.062521	  0.031448	  0.118826	  0.104300	  0.204179	  0.000000	  0.249554	  0.310735	  0.974209	  0.220336	
1.503	  0.000000	  0.000000	  0.032705	  0.266214	  0.130228	  0.273615	  0.062547	  0.030955	  0.115075	  0.101391	  0.206353	  0.000000	  0.248171	  0.307927	  0.977676	  0.220429	
1.5035	  0.000000	  0.000000	  0.033036	  0.268737	  0.132497	  0.274786	  0.062576	  0.030484	  0.111396	  0.098535	  0.208537	  0.000000	  0.246734	  0.305158	  0.981253	  0.220497	
1.504	  0.000000	  0.000000	  0.033372	  0.271243	  0.134814	  0.275917	  0.062608	  0.030033	  0.107788	  0.095731	  0.210731	  0.000000	  0.245243	  0.302428	  0.984937	  0.220538	
1.5045	  0.000000	  0.000000	  0.033715	  0.273731	  0.137178	  0.277010	  0.062645	  0.029602	  0.104250	  0.092980	  0.212934	  0.000115	  0.243700	  0.299737	  0.988727	  0.220554	
1.505	  0.000000	  0.000000	  0.034063	  0.276200	  0.139590	  0.278062	  0.062684	  0.029191	  0.100783	  0.090282	  0.215147	  0.000401	  0.242106	  0.297087	  0.992620	  0.220543	
1.5055	  0.000000	  0.000000	  0.034418	  0.278650	  0.142048	  0.279076	  0.062727	  0.028799	  0.097387	  0.087636	  0.217369	  0.000687	  0.240465	  0.294476	  0.996614	  0.220505	
1.506	  0.000000	  0.000000	  0.034780	  0.281080	  0.144551	  0.280050	  0.062774	  0.028426	  0.094060	  0.085042	  0.219599	  0.000972	  0.238777	  0.291904	  1.000707	  0.220441	
1.5065	  0.000000	  0.000000	  0.035147	  0.283489	  0.147099	  0.280985	  0.062824	  0.028072	  0.090803	  0.082500	  0.221839	  0.001256	  0.237046	  0.289372	  1.004897	  0.220350	
1.507	  0.000000	  0.000000	  0.035521	  0.285876	  0.149692	  0.281882	  0.062878	  0.027735	  0.087615	  0.080009	  0.224086	  0.001540	  0.235273	  0.286880	  1.009182	  0.220232	
1.5075	  0.000000	  0.000000	  0.035902	  0.288239	  0.152328	  0.282739	  0.062935	  0.027417	  0.084495	  0.077571	  0.226340	  0.001822	  0.233461	  0.284427	  1.013561	  0.220087	
1.508	  0.000000	  0.000000	  0.036289	  0.290579	  0.155006	  0.283558	  0.062996	  0.027116	  0.081444	  0.075184	  0.228602	  0.002103	  0.231612	  0.282013	  1.018031	  0.219917	
1.5085	  0.000000	  0.000000	  0.036683	  0.292894	  0.157727	  0.284338	  0.063060	  0.026833	  0.078461	  0.072848	  0.230870	  0.002383	  0.229730	  0.279638	  1.022592	  0.219720	
1.509	  0.000000	  0.000000	  0.037083	  0.295182	  0.160488	  0.285080	  0.063127	  0.026566	  0.075544	  0.070563	  0.233145	  0.002662	  0.227816	  0.277302	  1.027243	  0.219498	
1.5095	  0.000000	  0.000000	  0.037491	  0.297443	  0.163289	  0.285783	  0.063198	  0.026316	  0.072695	  0.068328	  0.235425	  0.002939	  0.225873	  0.275004	  1.031983	  0.219251	
1.51	  0.000000	  0.000000	  0.037905	  0.299676	  0.166130	  0.286447	  0.063272	  0.026082	  0.069912	  0.066144	  0.237709	  0.003215	  0.223903	  0.272745	  1.036811	  0.218980	
1.5105	  0.000000	  0.000000	  0.038326	  0.301879	  0.169008	  0.287073	  0.063349	  0.025863	  0.067194	  0.064009	  0.239997	  0.003488	  0.221910	  0.270524	  1.041726	  0.218686	
1.511	  0.000000	  0.000000	  0.038754	  0.304051	  0.171923	  0.287661	  0.063429	  0.025661	  0.064542	  0.061924	  0.242289	  0.003761	  0.219895	  0.268341	  1.046728	  0.218368	
1.5115	  0.000000	  0.000000	  0.039190	  0.306192	  0.174874	  0.288210	  0.063512	  0.025473	  0.061954	  0.059888	  0.244583	  0.004031	  0.217860	  0.266195	  1.051815	  0.218029	
1.512	  0.000000	  0.000000	  0.039632	  0.308301	  0.177859	  0.288722	  0.063598	  0.025300	  0.059430	  0.057901	  0.246878	  0.004299	  0.215809	  0.264086	  1.056986	  0.217668	
1.5125	  0.000000	  0.000000	  0.040082	  0.310376	  0.180878	  0.289196	  0.063686	  0.025141	  0.056969	  0.055963	  0.249174	  0.004565	  0.213742	  0.262014	  1.062239	  0.217286	
1.513	  0.000000	  0.000000	  0.040539	  0.312417	  0.183930	  0.289633	  0.063777	  0.024996	  0.054571	  0.054072	  0.251469	  0.004829	  0.211662	  0.259978	  1.067574	  0.216885	
1.5135	  0.000000	  0.000000	  0.041004	  0.314422	  0.187012	  0.290034	  0.063871	  0.024865	  0.052234	  0.052229	  0.253762	  0.005091	  0.209572	  0.257978	  1.072988	  0.216465	
1.514	  0.000000	  0.000000	  0.041476	  0.316391	  0.190123	  0.290398	  0.063968	  0.024747	  0.049959	  0.050433	  0.256053	  0.005351	  0.207473	  0.256013	  1.078479	  0.216026	
1.5145	  0.000000	  0.000000	  0.041955	  0.318324	  0.193263	  0.290727	  0.064067	  0.024641	  0.047745	  0.048683	  0.258340	  0.005608	  0.205368	  0.254081	  1.084043	  0.215569	
1.515	  0.000000	  0.000000	  0.042443	  0.320219	  0.196429	  0.291022	  0.064168	  0.024548	  0.045590	  0.046980	  0.260621	  0.005862	  0.203258	  0.252184	  1.089679	  0.215095	
1.5155	  0.000000	  0.000000	  0.042938	  0.322077	  0.199620	  0.291283	  0.064272	  0.024468	  0.043495	  0.045322	  0.262897	  0.006114	  0.201145	  0.250321	  1.095384	  0.214604	
1.516	  0.000000	  0.000000	  0.043442	  0.323896	  0.202835	  0.291512	  0.064379	  0.024398	  0.041458	  0.043709	  0.265165	  0.006364	  0.199031	  0.248492	  1.101153	  0.214096	
1.5165	  0.000000	  0.000000	  0.043954	  0.325678	  0.206072	  0.291708	  0.064488	  0.024340	  0.039479	  0.042141	  0.267426	  0.006611	  0.196918	  0.246695	  1.106984	  0.213572	
1.517	  0.000000	  0.000000	  0.044474	  0.327423	  0.209329	  0.291873	  0.064599	  0.024294	  0.037556	  0.040617	  0.269676	  0.006855	  0.194807	  0.244932	  1.112872	  0.213033	
1.5175	  0.000000	  0.000000	  0.045003	  0.329129	  0.212605	  0.292007	  0.064712	  0.024257	  0.035691	  0.039137	  0.271916	  0.007096	  0.192701	  0.243202	  1.118815	  0.212478	
1.518	  0.000000	  0.000000	  0.045541	  0.330798	  0.215897	  0.292110	  0.064828	  0.024232	  0.033881	  0.037699	  0.274145	  0.007335	  0.190601	  0.241504	  1.124807	  0.211908	
1.5185	  0.000000	  0.000000	  0.046088	  0.332429	  0.219204	  0.292183	  0.064946	  0.024216	  0.032125	  0.036304	  0.276361	  0.007570	  0.188508	  0.239840	  1.130843	  0.211324	
1.519	  0.000000	  0.000000	  0.046643	  0.334023	  0.222524	  0.292227	  0.065065	  0.024210	  0.030424	  0.034950	  0.278564	  0.007803	  0.186424	  0.238207	  1.136921	  0.210724	
1.5195	  0.000000	  0.000000	  0.047208	  0.335580	  0.225856	  0.292242	  0.065187	  0.024213	  0.028776	  0.033638	  0.280753	  0.008033	  0.184351	  0.236607	  1.143033	  0.210110	
1.52	  0.000000	  0.000000	  0.047783	  0.337100	  0.229197	  0.292228	  0.065311	  0.024225	  0.027180	  0.032367	  0.282927	  0.008259	  0.182290	  0.235039	  1.149176	  0.209481	
1.5205	  0.000000	  0.000000	  0.048367	  0.338583	  0.232544	  0.292187	  0.065436	  0.024246	  0.025636	  0.031135	  0.285086	  0.008483	  0.180243	  0.233504	  1.155343	  0.208838	
1.521	  0.000000	  0.000000	  0.048961	  0.340031	  0.235898	  0.292119	  0.065563	  0.024275	  0.024143	  0.029943	  0.287229	  0.008704	  0.178210	  0.232002	  1.161529	  0.208181	
1.5215	  0.000000	  0.000000	  0.049564	  0.341443	  0.239254	  0.292025	  0.065692	  0.024312	  0.022700	  0.028790	  0.289355	  0.008921	  0.176193	  0.230533	  1.167727	  0.207511	
1.522	  0.000000	  0.000000	  0.050178	  0.342820	  0.242611	  0.291906	  0.065822	  0.024357	  0.021306	  0.027674	  0.291463	  0.009136	  0.174193	  0.229097	  1.173932	  0.206826	
1.5225	  0.000063	  0.000000	  0.050802	  0.344164	  0.245968	  0.291763	  0.065953	  0.024410	  0.019961	  0.026597	  0.293553	  0.009347	  0.172212	  0.227694	  1.180137	  0.206129	
1.523	  0.000433	  0.000000	  0.051436	  0.345475	  0.249321	  0.291598	  0.066085	  0.024471	  0.018664	  0.025556	  0.295624	  0.009555	  0.170251	  0.226326	  1.186335	  0.205419	
1.5235	  0.000804	  0.000000	  0.052081	  0.346753	  0.252668	  0.291411	  0.066218	  0.024538	  0.017413	  0.024552	  0.297674	  0.009760	  0.168310	  0.224992	  1.192519	  0.204696	
1.524	  0.001177	  0.000000	  0.052736	  0.347999	  0.256008	  0.291204	  0.066351	  0.024613	  0.016208	  0.023583	  0.299704	  0.009961	  0.166391	  0.223692	  1.198682	  0.203962	
1.5245	  0.001550	  0.000000	  0.053402	  0.349214	  0.259338	  0.290977	  0.066486	  0.024694	  0.015049	  0.022650	  0.301712	  0.010159	  0.164496	  0.222428	  1.204816	  0.203217	
1.525	  0.001925	  0.000000	  0.054080	  0.350397	  0.262656	  0.290732	  0.066621	  0.024781	  0.013934	  0.021750	  0.303698	  0.010354	  0.162624	  0.221198	  1.210913	  0.202460	
1.5255	  0.002301	  0.000000	  0.054768	  0.351550	  0.265958	  0.290469	  0.066757	  0.024875	  0.012862	  0.020885	  0.305661	  0.010545	  0.160778	  0.220004	  1.216966	  0.201694	
1.526	  0.002678	  0.000000	  0.055468	  0.352672	  0.269244	  0.290190	  0.066894	  0.024974	  0.011833	  0.020053	  0.307601	  0.010733	  0.158957	  0.218846	  1.222966	  0.200919	
1.5265	  0.003055	  0.000000	  0.056179	  0.353764	  0.272510	  0.289894	  0.067030	  0.025079	  0.010846	  0.019253	  0.309516	  0.010917	  0.157164	  0.217723	  1.228905	  0.200135	
1.527	  0.003433	  0.000000	  0.056903	  0.354827	  0.275755	  0.289584	  0.067167	  0.025190	  0.009900	  0.018485	  0.311407	  0.011098	  0.155398	  0.216636	  1.234773	  0.199343	
